<svg id="Capa_1" enable-background="new 0 0 497 497" height="512" viewBox="0 0 497 497" width="512" xmlns="http://www.w3.org/2000/svg"><g><path d="m248.5 0v497c137.243 0 248.5-111.257 248.5-248.5s-111.257-248.5-248.5-248.5z" fill="#405acc"/><path d="m467 248.5c0-137.243-97.826-248.5-218.5-248.5-137.243 0-248.5 111.257-248.5 248.5s111.257 248.5 248.5 248.5c120.674 0 218.5-111.257 218.5-248.5z" fill="#4271db"/><g fill="#ffba48"><path d="m248.5 79.751-19.495 10.249 3.723-21.708-15.772-15.374 21.796-3.167 9.748-19.751 9.748 19.751 21.796 3.167-15.772 15.374 3.723 21.708z"/><path d="m332.875 102.359-22.008-.872 14.078-16.938-5.972-21.2 20.46 8.155 18.317-12.231-1.434 21.979 17.293 13.641-21.346 5.428-7.63 20.662z"/><path d="m394.641 164.125-18.624-11.758 20.662-7.63 5.428-21.346 13.641 17.293 21.979-1.434-12.231 18.317 8.155 20.46-21.2-5.972-16.938 14.078z"/><path d="m417.249 248.5-10.249-19.495 21.708 3.723 15.374-15.772 3.167 21.796 19.751 9.748-19.751 9.748-3.167 21.796-15.374-15.772-21.708 3.723z"/><path d="m394.641 332.875.872-22.008 16.938 14.078 21.2-5.972-8.155 20.46 12.231 18.317-21.979-1.434-13.641 17.293-5.428-21.346-20.662-7.63z"/><path d="m332.875 394.641 11.758-18.624 7.63 20.662 21.346 5.428-17.293 13.641 1.434 21.979-18.317-12.231-20.46 8.155 5.972-21.2-14.078-16.938z"/><path d="m248.5 417.249 19.495-10.249-3.723 21.708 15.772 15.374-21.796 3.167-9.748 19.751-9.748-19.751-21.796-3.167 15.772-15.374-3.723-21.708z"/><path d="m164.125 394.641 22.008.872-14.078 16.938 5.972 21.2-20.46-8.155-18.317 12.231 1.434-21.979-17.293-13.641 21.346-5.428 7.63-20.662z"/><path d="m102.359 332.875 18.624 11.758-20.662 7.63-5.428 21.346-13.641-17.293-21.979 1.434 12.231-18.317-8.155-20.46 21.2 5.972 16.938-14.078z"/><path d="m79.751 248.5 10.249 19.495-21.708-3.723-15.374 15.772-3.167-21.796-19.751-9.748 19.751-9.748 3.167-21.796 15.374 15.772 21.708-3.723z"/><path d="m102.359 164.125-.872 22.008-16.938-14.078-21.2 5.972 8.155-20.46-12.231-18.317 21.979 1.434 13.641-17.293 5.428 21.346 20.662 7.63z"/><path d="m164.125 102.359-11.758 18.624-7.63-20.662-21.346-5.428 17.293-13.641-1.434-21.979 18.317 12.231 20.46-8.155-5.972 21.2 14.078 16.938z"/></g></g></svg>